<mxfile host="app.diagrams.net" modified="2022-12-27T23:10:25.052Z" agent="5.0 (Windows NT 10.0; Win64; x64) AppleWebKit/537.36 (KHTML, like Gecko) Chrome/108.0.0.0 Safari/537.36" version="20.6.2" etag="Qr-jXhqQ1aM72y2Khl7l" type="github">
  <diagram id="OHAgsnlhURnVh-o_5aFd" name="Page-1">
    <mxGraphModel dx="609" dy="297" grid="1" gridSize="10" guides="1" tooltips="1" connect="1" arrows="1" fold="1" page="1" pageScale="1" pageWidth="1169" pageHeight="827" math="0" shadow="0">
      <root>
        <mxCell id="0" />
        <mxCell id="1" parent="0" />
        <mxCell id="W_sDVHE6St3SvDxYg9yA-47" style="edgeStyle=none;rounded=0;orthogonalLoop=1;jettySize=auto;html=1;exitX=1;exitY=0.25;exitDx=0;exitDy=0;entryX=0;entryY=0.5;entryDx=0;entryDy=0;strokeColor=#000000;endArrow=none;endFill=0;" edge="1" parent="1" source="W_sDVHE6St3SvDxYg9yA-23" target="W_sDVHE6St3SvDxYg9yA-34">
          <mxGeometry relative="1" as="geometry" />
        </mxCell>
        <mxCell id="W_sDVHE6St3SvDxYg9yA-23" value="&lt;b&gt;PCDS&lt;/b&gt;" style="rounded=0;whiteSpace=wrap;html=1;" vertex="1" parent="1">
          <mxGeometry x="160" y="296" width="120" height="54" as="geometry" />
        </mxCell>
        <mxCell id="W_sDVHE6St3SvDxYg9yA-24" style="edgeStyle=orthogonalEdgeStyle;rounded=0;orthogonalLoop=1;jettySize=auto;html=1;exitX=0;exitY=0.25;exitDx=0;exitDy=0;endArrow=none;endFill=0;startArrow=classic;startFill=1;" edge="1" parent="1" source="W_sDVHE6St3SvDxYg9yA-25">
          <mxGeometry relative="1" as="geometry">
            <mxPoint x="360" y="336" as="targetPoint" />
            <mxPoint x="380" y="395" as="sourcePoint" />
          </mxGeometry>
        </mxCell>
        <mxCell id="W_sDVHE6St3SvDxYg9yA-60" value="Ethernet&lt;br&gt;Cable" style="edgeStyle=elbowEdgeStyle;rounded=0;orthogonalLoop=1;jettySize=auto;html=1;exitX=0;exitY=0.5;exitDx=0;exitDy=0;entryX=0.75;entryY=0;entryDx=0;entryDy=0;endArrow=none;endFill=0;labelPosition=left;verticalLabelPosition=top;align=right;verticalAlign=bottom;" edge="1" parent="1" source="W_sDVHE6St3SvDxYg9yA-25" target="W_sDVHE6St3SvDxYg9yA-40">
          <mxGeometry relative="1" as="geometry">
            <Array as="points">
              <mxPoint x="470" y="390" />
            </Array>
          </mxGeometry>
        </mxCell>
        <mxCell id="W_sDVHE6St3SvDxYg9yA-33" value="" style="edgeStyle=elbowEdgeStyle;rounded=0;orthogonalLoop=1;jettySize=auto;html=1;exitX=1;exitY=0.75;exitDx=0;exitDy=0;endArrow=none;endFill=1;entryX=0;entryY=0.5;entryDx=0;entryDy=0;" edge="1" parent="1" target="W_sDVHE6St3SvDxYg9yA-35" source="W_sDVHE6St3SvDxYg9yA-23">
          <mxGeometry relative="1" as="geometry">
            <mxPoint x="356.25748391281763" y="335.93700643487296" as="targetPoint" />
            <mxPoint x="310" y="335.9999999999999" as="sourcePoint" />
            <Array as="points" />
          </mxGeometry>
        </mxCell>
        <mxCell id="W_sDVHE6St3SvDxYg9yA-56" style="edgeStyle=orthogonalEdgeStyle;rounded=0;orthogonalLoop=1;jettySize=auto;html=1;exitX=1;exitY=0.5;exitDx=0;exitDy=0;entryX=0.001;entryY=0.091;entryDx=0;entryDy=0;entryPerimeter=0;" edge="1" parent="1" source="W_sDVHE6St3SvDxYg9yA-34" target="W_sDVHE6St3SvDxYg9yA-25">
          <mxGeometry relative="1" as="geometry" />
        </mxCell>
        <mxCell id="W_sDVHE6St3SvDxYg9yA-34" value="" style="ellipse;whiteSpace=wrap;html=1;fillColor=#000000;aspect=fixed;" vertex="1" parent="1">
          <mxGeometry x="338" y="307.5" width="5" height="5" as="geometry" />
        </mxCell>
        <mxCell id="W_sDVHE6St3SvDxYg9yA-35" value="" style="ellipse;whiteSpace=wrap;html=1;fillColor=#000000;aspect=fixed;" vertex="1" parent="1">
          <mxGeometry x="357" y="334" width="5" height="5" as="geometry" />
        </mxCell>
        <mxCell id="W_sDVHE6St3SvDxYg9yA-18" value="24V" style="labelPosition=left;align=right;shape=mxgraph.electrical.signal_sources.voltage;shadow=0;dashed=0;strokeWidth=1;fontSize=10;html=1;direction=west;flipV=0;flipH=1;verticalLabelPosition=middle;verticalAlign=middle;" vertex="1" parent="1">
          <mxGeometry x="309" y="311" width="10" height="24" as="geometry" />
        </mxCell>
        <mxCell id="W_sDVHE6St3SvDxYg9yA-42" style="edgeStyle=orthogonalEdgeStyle;rounded=0;orthogonalLoop=1;jettySize=auto;html=1;exitX=1;exitY=0.5;exitDx=0;exitDy=0;entryX=0;entryY=0.25;entryDx=0;entryDy=0;" edge="1" parent="1" source="W_sDVHE6St3SvDxYg9yA-34" target="W_sDVHE6St3SvDxYg9yA-40">
          <mxGeometry relative="1" as="geometry">
            <Array as="points">
              <mxPoint x="341" y="310" />
              <mxPoint x="341" y="414" />
            </Array>
          </mxGeometry>
        </mxCell>
        <mxCell id="W_sDVHE6St3SvDxYg9yA-43" style="edgeStyle=orthogonalEdgeStyle;rounded=0;orthogonalLoop=1;jettySize=auto;html=1;exitX=1;exitY=0.5;exitDx=0;exitDy=0;entryX=0;entryY=0.75;entryDx=0;entryDy=0;" edge="1" parent="1" source="W_sDVHE6St3SvDxYg9yA-35" target="W_sDVHE6St3SvDxYg9yA-40">
          <mxGeometry relative="1" as="geometry">
            <Array as="points">
              <mxPoint x="360" y="337" />
              <mxPoint x="360" y="441" />
            </Array>
          </mxGeometry>
        </mxCell>
        <mxCell id="W_sDVHE6St3SvDxYg9yA-58" style="edgeStyle=none;rounded=0;orthogonalLoop=1;jettySize=auto;html=1;exitX=0.25;exitY=0;exitDx=0;exitDy=0;endArrow=none;endFill=0;" edge="1" parent="1" source="W_sDVHE6St3SvDxYg9yA-40" target="W_sDVHE6St3SvDxYg9yA-45">
          <mxGeometry relative="1" as="geometry" />
        </mxCell>
        <mxCell id="W_sDVHE6St3SvDxYg9yA-40" value="Access point&amp;nbsp;" style="rounded=0;whiteSpace=wrap;html=1;" vertex="1" parent="1">
          <mxGeometry x="380" y="400" width="120" height="54" as="geometry" />
        </mxCell>
        <mxCell id="W_sDVHE6St3SvDxYg9yA-45" value="" style="sketch=0;pointerEvents=1;shadow=0;dashed=0;html=1;strokeColor=none;fillColor=#434445;aspect=fixed;labelPosition=center;verticalLabelPosition=bottom;verticalAlign=top;align=center;outlineConnect=0;shape=mxgraph.vvd.wi_fi;rotation=315;points=[[0.5,1,0,0,2]];" vertex="1" parent="1">
          <mxGeometry x="400" y="366" width="20" height="20" as="geometry" />
        </mxCell>
        <mxCell id="W_sDVHE6St3SvDxYg9yA-57" style="edgeStyle=none;rounded=0;orthogonalLoop=1;jettySize=auto;html=1;exitX=0.25;exitY=0;exitDx=0;exitDy=0;" edge="1" parent="1" source="W_sDVHE6St3SvDxYg9yA-40" target="W_sDVHE6St3SvDxYg9yA-40">
          <mxGeometry relative="1" as="geometry" />
        </mxCell>
        <mxCell id="W_sDVHE6St3SvDxYg9yA-219" value="" style="group" vertex="1" connectable="0" parent="1">
          <mxGeometry x="520" y="290" width="375" height="195" as="geometry" />
        </mxCell>
        <mxCell id="W_sDVHE6St3SvDxYg9yA-158" value="" style="group" vertex="1" connectable="0" parent="W_sDVHE6St3SvDxYg9yA-219">
          <mxGeometry width="375" height="195" as="geometry" />
        </mxCell>
        <mxCell id="W_sDVHE6St3SvDxYg9yA-157" value="" style="group" vertex="1" connectable="0" parent="W_sDVHE6St3SvDxYg9yA-158">
          <mxGeometry x="84" width="291" height="195" as="geometry" />
        </mxCell>
        <mxCell id="W_sDVHE6St3SvDxYg9yA-102" value="" style="group" vertex="1" connectable="0" parent="W_sDVHE6St3SvDxYg9yA-157">
          <mxGeometry width="99" height="166" as="geometry" />
        </mxCell>
        <mxCell id="W_sDVHE6St3SvDxYg9yA-130" value="" style="group" vertex="1" connectable="0" parent="W_sDVHE6St3SvDxYg9yA-102">
          <mxGeometry width="99" height="166" as="geometry" />
        </mxCell>
        <mxCell id="W_sDVHE6St3SvDxYg9yA-103" value="" style="group" vertex="1" connectable="0" parent="W_sDVHE6St3SvDxYg9yA-130">
          <mxGeometry y="5" width="99" height="161" as="geometry" />
        </mxCell>
        <mxCell id="W_sDVHE6St3SvDxYg9yA-104" value="" style="rounded=0;whiteSpace=wrap;html=1;labelPosition=center;verticalLabelPosition=middle;align=center;verticalAlign=middle;fillColor=none;" vertex="1" parent="W_sDVHE6St3SvDxYg9yA-103">
          <mxGeometry x="16" y="1" width="64" height="160" as="geometry" />
        </mxCell>
        <mxCell id="W_sDVHE6St3SvDxYg9yA-105" value="" style="group" vertex="1" connectable="0" parent="W_sDVHE6St3SvDxYg9yA-103">
          <mxGeometry x="-1" y="-5" width="98" height="75" as="geometry" />
        </mxCell>
        <mxCell id="W_sDVHE6St3SvDxYg9yA-106" value="&lt;font style=&quot;&quot;&gt;&lt;span style=&quot;font-size: 14px;&quot;&gt;1&lt;/span&gt;&lt;br&gt;&lt;span style=&quot;font-size: 14px;&quot;&gt;2&lt;/span&gt;&lt;br&gt;&lt;span style=&quot;font-size: 14px;&quot;&gt;3&lt;/span&gt;&lt;br&gt;&lt;div style=&quot;text-align: left;&quot;&gt;&lt;span style=&quot;font-size: 14px;&quot;&gt;4&lt;/span&gt;&lt;/div&gt;&lt;/font&gt;" style="text;html=1;strokeColor=none;fillColor=none;align=center;verticalAlign=middle;whiteSpace=wrap;rounded=0;" vertex="1" parent="W_sDVHE6St3SvDxYg9yA-105">
          <mxGeometry x="1" y="43" width="48" height="30" as="geometry" />
        </mxCell>
        <mxCell id="W_sDVHE6St3SvDxYg9yA-107" value="a" style="text;html=1;strokeColor=none;fillColor=none;align=center;verticalAlign=middle;whiteSpace=wrap;rounded=0;" vertex="1" parent="W_sDVHE6St3SvDxYg9yA-105">
          <mxGeometry width="48" height="30" as="geometry" />
        </mxCell>
        <mxCell id="W_sDVHE6St3SvDxYg9yA-108" value="&lt;font style=&quot;font-size: 14px;&quot;&gt;1&lt;br&gt;2&lt;br&gt;3&lt;br&gt;4&lt;/font&gt;" style="text;html=1;strokeColor=none;fillColor=none;align=center;verticalAlign=middle;whiteSpace=wrap;rounded=0;" vertex="1" parent="W_sDVHE6St3SvDxYg9yA-105">
          <mxGeometry x="49" y="43" width="48" height="30" as="geometry" />
        </mxCell>
        <mxCell id="W_sDVHE6St3SvDxYg9yA-109" style="edgeStyle=elbowEdgeStyle;rounded=0;orthogonalLoop=1;jettySize=auto;html=1;exitX=0.75;exitY=0;exitDx=0;exitDy=0;fontSize=14;fontColor=none;endArrow=none;endFill=0;" edge="1" parent="W_sDVHE6St3SvDxYg9yA-105" source="W_sDVHE6St3SvDxYg9yA-106" target="W_sDVHE6St3SvDxYg9yA-106">
          <mxGeometry relative="1" as="geometry" />
        </mxCell>
        <mxCell id="W_sDVHE6St3SvDxYg9yA-176" value="" style="group" vertex="1" connectable="0" parent="W_sDVHE6St3SvDxYg9yA-105">
          <mxGeometry x="30.5" y="32" width="1" height="51" as="geometry" />
        </mxCell>
        <mxCell id="W_sDVHE6St3SvDxYg9yA-171" value="" style="group" vertex="1" connectable="0" parent="W_sDVHE6St3SvDxYg9yA-176">
          <mxGeometry width="1" height="18" as="geometry" />
        </mxCell>
        <mxCell id="W_sDVHE6St3SvDxYg9yA-172" value="" style="ellipse;whiteSpace=wrap;html=1;fillColor=#000000;aspect=fixed;" vertex="1" parent="W_sDVHE6St3SvDxYg9yA-171">
          <mxGeometry width="1" height="1" as="geometry" />
        </mxCell>
        <mxCell id="W_sDVHE6St3SvDxYg9yA-173" value="" style="ellipse;whiteSpace=wrap;html=1;fillColor=#000000;aspect=fixed;" vertex="1" parent="W_sDVHE6St3SvDxYg9yA-171">
          <mxGeometry y="17" width="1" height="1" as="geometry" />
        </mxCell>
        <mxCell id="W_sDVHE6St3SvDxYg9yA-220" style="edgeStyle=orthogonalEdgeStyle;curved=1;rounded=0;orthogonalLoop=1;jettySize=auto;html=1;exitX=1;exitY=0;exitDx=0;exitDy=0;entryX=0.5;entryY=1;entryDx=0;entryDy=0;fontSize=14;fontColor=none;endArrow=none;endFill=0;" edge="1" parent="W_sDVHE6St3SvDxYg9yA-176" source="W_sDVHE6St3SvDxYg9yA-174" target="W_sDVHE6St3SvDxYg9yA-175">
          <mxGeometry relative="1" as="geometry">
            <Array as="points">
              <mxPoint x="7" y="50" />
              <mxPoint x="7" y="34" />
            </Array>
          </mxGeometry>
        </mxCell>
        <mxCell id="W_sDVHE6St3SvDxYg9yA-174" value="" style="ellipse;whiteSpace=wrap;html=1;fillColor=#000000;aspect=fixed;" vertex="1" parent="W_sDVHE6St3SvDxYg9yA-176">
          <mxGeometry y="50" width="1" height="1" as="geometry" />
        </mxCell>
        <mxCell id="W_sDVHE6St3SvDxYg9yA-175" value="" style="ellipse;whiteSpace=wrap;html=1;fillColor=#000000;aspect=fixed;" vertex="1" parent="W_sDVHE6St3SvDxYg9yA-176">
          <mxGeometry y="33" width="1" height="1" as="geometry" />
        </mxCell>
        <mxCell id="W_sDVHE6St3SvDxYg9yA-223" style="edgeStyle=orthogonalEdgeStyle;curved=1;rounded=0;orthogonalLoop=1;jettySize=auto;html=1;exitX=1;exitY=0;exitDx=0;exitDy=0;entryX=0.5;entryY=1;entryDx=0;entryDy=0;fontSize=14;fontColor=none;endArrow=none;endFill=0;" edge="1" parent="W_sDVHE6St3SvDxYg9yA-105">
          <mxGeometry relative="1" as="geometry">
            <mxPoint x="31.85355339059322" y="66.07644660940684" as="sourcePoint" />
            <mxPoint x="31.5" y="49.93000000000001" as="targetPoint" />
            <Array as="points">
              <mxPoint x="38" y="65.93" />
              <mxPoint x="38" y="49.93000000000001" />
            </Array>
          </mxGeometry>
        </mxCell>
        <mxCell id="W_sDVHE6St3SvDxYg9yA-224" style="edgeStyle=orthogonalEdgeStyle;curved=1;rounded=0;orthogonalLoop=1;jettySize=auto;html=1;exitX=1;exitY=0;exitDx=0;exitDy=0;entryX=0.5;entryY=1;entryDx=0;entryDy=0;fontSize=14;fontColor=none;endArrow=none;endFill=0;" edge="1" parent="W_sDVHE6St3SvDxYg9yA-105">
          <mxGeometry relative="1" as="geometry">
            <mxPoint x="30.85355339059322" y="49.14644660940684" as="sourcePoint" />
            <mxPoint x="30.5" y="33" as="targetPoint" />
            <Array as="points">
              <mxPoint x="37" y="49" />
              <mxPoint x="37" y="33" />
            </Array>
          </mxGeometry>
        </mxCell>
        <mxCell id="W_sDVHE6St3SvDxYg9yA-110" value="&lt;font style=&quot;font-size: 9px;&quot;&gt;NI 9841&lt;/font&gt;" style="text;html=1;strokeColor=none;fillColor=none;align=center;verticalAlign=top;whiteSpace=wrap;rounded=0;fontSize=12;fontColor=none;rotation=270;flipV=1;flipH=1;direction=west;horizontal=1;textDirection=ltr;" vertex="1" parent="W_sDVHE6St3SvDxYg9yA-103">
          <mxGeometry x="-8" y="129" width="60" height="30" as="geometry" />
        </mxCell>
        <mxCell id="W_sDVHE6St3SvDxYg9yA-177" value="" style="group" vertex="1" connectable="0" parent="W_sDVHE6St3SvDxYg9yA-103">
          <mxGeometry x="65" y="27" width="1" height="51" as="geometry" />
        </mxCell>
        <mxCell id="W_sDVHE6St3SvDxYg9yA-178" value="" style="group" vertex="1" connectable="0" parent="W_sDVHE6St3SvDxYg9yA-177">
          <mxGeometry width="1" height="18" as="geometry" />
        </mxCell>
        <mxCell id="W_sDVHE6St3SvDxYg9yA-179" value="" style="ellipse;whiteSpace=wrap;html=1;fillColor=#000000;aspect=fixed;" vertex="1" parent="W_sDVHE6St3SvDxYg9yA-178">
          <mxGeometry width="1" height="1" as="geometry" />
        </mxCell>
        <mxCell id="W_sDVHE6St3SvDxYg9yA-180" value="" style="ellipse;whiteSpace=wrap;html=1;fillColor=#000000;aspect=fixed;" vertex="1" parent="W_sDVHE6St3SvDxYg9yA-178">
          <mxGeometry y="17" width="1" height="1" as="geometry" />
        </mxCell>
        <mxCell id="W_sDVHE6St3SvDxYg9yA-181" value="" style="ellipse;whiteSpace=wrap;html=1;fillColor=#000000;aspect=fixed;" vertex="1" parent="W_sDVHE6St3SvDxYg9yA-177">
          <mxGeometry y="50" width="1" height="1" as="geometry" />
        </mxCell>
        <mxCell id="W_sDVHE6St3SvDxYg9yA-182" value="" style="ellipse;whiteSpace=wrap;html=1;fillColor=#000000;aspect=fixed;" vertex="1" parent="W_sDVHE6St3SvDxYg9yA-177">
          <mxGeometry y="34" width="1" height="1" as="geometry" />
        </mxCell>
        <mxCell id="W_sDVHE6St3SvDxYg9yA-111" value="b" style="text;html=1;strokeColor=none;fillColor=none;align=center;verticalAlign=middle;whiteSpace=wrap;rounded=0;" vertex="1" parent="W_sDVHE6St3SvDxYg9yA-130">
          <mxGeometry x="50" width="48" height="30" as="geometry" />
        </mxCell>
        <mxCell id="W_sDVHE6St3SvDxYg9yA-132" value="" style="group" vertex="1" connectable="0" parent="W_sDVHE6St3SvDxYg9yA-157">
          <mxGeometry x="64" width="99" height="185" as="geometry" />
        </mxCell>
        <mxCell id="W_sDVHE6St3SvDxYg9yA-133" value="" style="group" vertex="1" connectable="0" parent="W_sDVHE6St3SvDxYg9yA-132">
          <mxGeometry width="99" height="185" as="geometry" />
        </mxCell>
        <mxCell id="W_sDVHE6St3SvDxYg9yA-134" value="" style="group" vertex="1" connectable="0" parent="W_sDVHE6St3SvDxYg9yA-133">
          <mxGeometry y="5" width="99" height="180" as="geometry" />
        </mxCell>
        <mxCell id="W_sDVHE6St3SvDxYg9yA-135" value="" style="rounded=0;whiteSpace=wrap;html=1;labelPosition=center;verticalLabelPosition=middle;align=center;verticalAlign=middle;fillColor=none;" vertex="1" parent="W_sDVHE6St3SvDxYg9yA-134">
          <mxGeometry x="16" y="1" width="64" height="160" as="geometry" />
        </mxCell>
        <mxCell id="W_sDVHE6St3SvDxYg9yA-136" value="" style="group" vertex="1" connectable="0" parent="W_sDVHE6St3SvDxYg9yA-134">
          <mxGeometry x="-1" y="-5" width="98" height="75" as="geometry" />
        </mxCell>
        <mxCell id="W_sDVHE6St3SvDxYg9yA-137" value="&lt;font style=&quot;&quot;&gt;&lt;span style=&quot;font-size: 14px;&quot;&gt;1&lt;/span&gt;&lt;br&gt;&lt;span style=&quot;font-size: 14px;&quot;&gt;2&lt;/span&gt;&lt;br&gt;&lt;span style=&quot;font-size: 14px;&quot;&gt;3&lt;/span&gt;&lt;br&gt;&lt;div style=&quot;text-align: left;&quot;&gt;&lt;span style=&quot;font-size: 14px;&quot;&gt;4&lt;/span&gt;&lt;/div&gt;&lt;/font&gt;" style="text;html=1;strokeColor=none;fillColor=none;align=center;verticalAlign=middle;whiteSpace=wrap;rounded=0;" vertex="1" parent="W_sDVHE6St3SvDxYg9yA-136">
          <mxGeometry x="1" y="43" width="48" height="30" as="geometry" />
        </mxCell>
        <mxCell id="W_sDVHE6St3SvDxYg9yA-138" value="&lt;font style=&quot;font-size: 14px;&quot;&gt;+&lt;/font&gt;" style="text;html=1;strokeColor=none;fillColor=none;align=center;verticalAlign=middle;whiteSpace=wrap;rounded=0;" vertex="1" parent="W_sDVHE6St3SvDxYg9yA-136">
          <mxGeometry width="48" height="30" as="geometry" />
        </mxCell>
        <mxCell id="W_sDVHE6St3SvDxYg9yA-139" value="&lt;font style=&quot;font-size: 14px;&quot;&gt;1&lt;br&gt;2&lt;br&gt;3&lt;br&gt;4&lt;/font&gt;" style="text;html=1;strokeColor=none;fillColor=none;align=center;verticalAlign=middle;whiteSpace=wrap;rounded=0;" vertex="1" parent="W_sDVHE6St3SvDxYg9yA-136">
          <mxGeometry x="49" y="43" width="48" height="30" as="geometry" />
        </mxCell>
        <mxCell id="W_sDVHE6St3SvDxYg9yA-140" style="edgeStyle=elbowEdgeStyle;rounded=0;orthogonalLoop=1;jettySize=auto;html=1;exitX=0.75;exitY=0;exitDx=0;exitDy=0;fontSize=14;fontColor=none;endArrow=none;endFill=0;" edge="1" parent="W_sDVHE6St3SvDxYg9yA-136" source="W_sDVHE6St3SvDxYg9yA-137" target="W_sDVHE6St3SvDxYg9yA-137">
          <mxGeometry relative="1" as="geometry" />
        </mxCell>
        <mxCell id="W_sDVHE6St3SvDxYg9yA-228" style="edgeStyle=orthogonalEdgeStyle;curved=1;rounded=0;orthogonalLoop=1;jettySize=auto;html=1;exitX=1;exitY=0;exitDx=0;exitDy=0;entryX=0.5;entryY=1;entryDx=0;entryDy=0;fontSize=14;fontColor=none;endArrow=none;endFill=0;" edge="1" parent="W_sDVHE6St3SvDxYg9yA-136">
          <mxGeometry relative="1" as="geometry">
            <mxPoint x="65.14644660940678" y="49.930000000000064" as="sourcePoint" />
            <mxPoint x="65.5" y="66.0764466094069" as="targetPoint" />
            <Array as="points">
              <mxPoint x="59" y="50.0764466094069" />
              <mxPoint x="59" y="66.0764466094069" />
            </Array>
          </mxGeometry>
        </mxCell>
        <mxCell id="W_sDVHE6St3SvDxYg9yA-141" value="&lt;font style=&quot;font-size: 9px;&quot;&gt;NI 9215&lt;/font&gt;" style="text;html=1;strokeColor=none;fillColor=none;align=center;verticalAlign=top;whiteSpace=wrap;rounded=0;fontSize=12;fontColor=none;rotation=270;flipV=1;flipH=1;direction=west;horizontal=1;textDirection=ltr;" vertex="1" parent="W_sDVHE6St3SvDxYg9yA-134">
          <mxGeometry x="-8" y="129" width="60" height="30" as="geometry" />
        </mxCell>
        <mxCell id="W_sDVHE6St3SvDxYg9yA-183" value="" style="group" vertex="1" connectable="0" parent="W_sDVHE6St3SvDxYg9yA-134">
          <mxGeometry x="31" y="27" width="1" height="51" as="geometry" />
        </mxCell>
        <mxCell id="W_sDVHE6St3SvDxYg9yA-184" value="" style="group" vertex="1" connectable="0" parent="W_sDVHE6St3SvDxYg9yA-183">
          <mxGeometry width="1" height="18" as="geometry" />
        </mxCell>
        <mxCell id="W_sDVHE6St3SvDxYg9yA-185" value="" style="ellipse;whiteSpace=wrap;html=1;fillColor=#000000;aspect=fixed;" vertex="1" parent="W_sDVHE6St3SvDxYg9yA-184">
          <mxGeometry width="1" height="1" as="geometry" />
        </mxCell>
        <mxCell id="W_sDVHE6St3SvDxYg9yA-186" value="" style="ellipse;whiteSpace=wrap;html=1;fillColor=#000000;aspect=fixed;" vertex="1" parent="W_sDVHE6St3SvDxYg9yA-184">
          <mxGeometry y="17" width="1" height="1" as="geometry" />
        </mxCell>
        <mxCell id="W_sDVHE6St3SvDxYg9yA-187" value="" style="ellipse;whiteSpace=wrap;html=1;fillColor=#000000;aspect=fixed;" vertex="1" parent="W_sDVHE6St3SvDxYg9yA-183">
          <mxGeometry y="50" width="1" height="1" as="geometry" />
        </mxCell>
        <mxCell id="W_sDVHE6St3SvDxYg9yA-188" value="" style="ellipse;whiteSpace=wrap;html=1;fillColor=#000000;aspect=fixed;" vertex="1" parent="W_sDVHE6St3SvDxYg9yA-183">
          <mxGeometry y="33" width="1" height="1" as="geometry" />
        </mxCell>
        <mxCell id="W_sDVHE6St3SvDxYg9yA-225" style="edgeStyle=orthogonalEdgeStyle;curved=1;rounded=0;orthogonalLoop=1;jettySize=auto;html=1;exitX=1;exitY=0;exitDx=0;exitDy=0;entryX=0.5;entryY=1;entryDx=0;entryDy=0;fontSize=14;fontColor=none;endArrow=none;endFill=0;" edge="1" parent="W_sDVHE6St3SvDxYg9yA-134">
          <mxGeometry relative="1" as="geometry">
            <mxPoint x="64.14644660940678" y="28.000000000000057" as="sourcePoint" />
            <mxPoint x="64.5" y="44.146446609406894" as="targetPoint" />
            <Array as="points">
              <mxPoint x="58" y="28.146446609406894" />
              <mxPoint x="58" y="44.146446609406894" />
            </Array>
          </mxGeometry>
        </mxCell>
        <mxCell id="W_sDVHE6St3SvDxYg9yA-142" value="&lt;font style=&quot;font-size: 14px;&quot;&gt;-&lt;/font&gt;" style="text;html=1;strokeColor=none;fillColor=none;align=center;verticalAlign=middle;whiteSpace=wrap;rounded=0;" vertex="1" parent="W_sDVHE6St3SvDxYg9yA-133">
          <mxGeometry x="50" width="48" height="30" as="geometry" />
        </mxCell>
        <mxCell id="W_sDVHE6St3SvDxYg9yA-143" value="" style="group" vertex="1" connectable="0" parent="W_sDVHE6St3SvDxYg9yA-157">
          <mxGeometry x="192" width="99" height="195" as="geometry" />
        </mxCell>
        <mxCell id="W_sDVHE6St3SvDxYg9yA-144" value="" style="group" vertex="1" connectable="0" parent="W_sDVHE6St3SvDxYg9yA-143">
          <mxGeometry width="99" height="195" as="geometry" />
        </mxCell>
        <mxCell id="W_sDVHE6St3SvDxYg9yA-145" value="" style="group" vertex="1" connectable="0" parent="W_sDVHE6St3SvDxYg9yA-144">
          <mxGeometry y="5" width="99" height="190" as="geometry" />
        </mxCell>
        <mxCell id="W_sDVHE6St3SvDxYg9yA-152" value="&lt;font style=&quot;font-size: 9px;&quot;&gt;NI 9213&lt;/font&gt;" style="text;html=1;strokeColor=none;fillColor=none;align=center;verticalAlign=top;whiteSpace=wrap;rounded=0;fontSize=12;fontColor=none;rotation=270;flipV=1;flipH=1;direction=west;horizontal=1;textDirection=ltr;" vertex="1" parent="W_sDVHE6St3SvDxYg9yA-145">
          <mxGeometry x="-8" y="129" width="60" height="30" as="geometry" />
        </mxCell>
        <mxCell id="W_sDVHE6St3SvDxYg9yA-154" value="&lt;font style=&quot;font-size: 14px;&quot;&gt;1&lt;br&gt;2&lt;br&gt;.&lt;br&gt;.&lt;br&gt;.&lt;br&gt;16&lt;br&gt;&lt;/font&gt;" style="text;html=1;strokeColor=none;fillColor=none;align=center;verticalAlign=middle;whiteSpace=wrap;rounded=0;" vertex="1" parent="W_sDVHE6St3SvDxYg9yA-145">
          <mxGeometry x="16" y="56.5" width="48" height="30" as="geometry" />
        </mxCell>
        <mxCell id="W_sDVHE6St3SvDxYg9yA-156" value="" style="group" vertex="1" connectable="0" parent="W_sDVHE6St3SvDxYg9yA-145">
          <mxGeometry x="16" y="1" width="64" height="189" as="geometry" />
        </mxCell>
        <mxCell id="W_sDVHE6St3SvDxYg9yA-146" value="" style="rounded=0;whiteSpace=wrap;html=1;labelPosition=center;verticalLabelPosition=middle;align=center;verticalAlign=middle;fillColor=none;" vertex="1" parent="W_sDVHE6St3SvDxYg9yA-156">
          <mxGeometry width="64" height="160" as="geometry" />
        </mxCell>
        <mxCell id="W_sDVHE6St3SvDxYg9yA-155" value="" style="rounded=0;whiteSpace=wrap;html=1;fontSize=14;fontColor=none;fillColor=#000000;gradientColor=none;" vertex="1" parent="W_sDVHE6St3SvDxYg9yA-156">
          <mxGeometry x="33" y="22.5" width="3" height="166.5" as="geometry" />
        </mxCell>
        <mxCell id="W_sDVHE6St3SvDxYg9yA-129" value="" style="group" vertex="1" connectable="0" parent="W_sDVHE6St3SvDxYg9yA-157">
          <mxGeometry x="128" y="2" width="103" height="164" as="geometry" />
        </mxCell>
        <mxCell id="W_sDVHE6St3SvDxYg9yA-79" value="" style="group" vertex="1" connectable="0" parent="W_sDVHE6St3SvDxYg9yA-129">
          <mxGeometry y="3" width="80" height="161" as="geometry" />
        </mxCell>
        <mxCell id="W_sDVHE6St3SvDxYg9yA-80" value="" style="rounded=0;whiteSpace=wrap;html=1;labelPosition=center;verticalLabelPosition=middle;align=center;verticalAlign=middle;fillColor=none;" vertex="1" parent="W_sDVHE6St3SvDxYg9yA-79">
          <mxGeometry x="16" y="1" width="64" height="160" as="geometry" />
        </mxCell>
        <mxCell id="W_sDVHE6St3SvDxYg9yA-81" value="&lt;div style=&quot;text-align: center; font-size: 9px;&quot;&gt;&lt;span style=&quot;background-color: initial;&quot;&gt;V&lt;/span&gt;&lt;sub style=&quot;background-color: initial;&quot;&gt;sup&lt;/sub&gt;&lt;/div&gt;" style="text;html=1;strokeColor=none;fillColor=none;align=left;verticalAlign=middle;whiteSpace=wrap;rounded=0;" vertex="1" parent="W_sDVHE6St3SvDxYg9yA-79">
          <mxGeometry x="18" y="-2" width="48" height="30" as="geometry" />
        </mxCell>
        <mxCell id="W_sDVHE6St3SvDxYg9yA-83" value="&lt;font style=&quot;font-size: 14px;&quot;&gt;1&lt;br&gt;2&lt;br&gt;3&lt;br&gt;4&lt;br&gt;5&lt;br&gt;6&lt;br&gt;7&lt;br&gt;8&lt;br&gt;&lt;/font&gt;" style="text;html=1;strokeColor=none;fillColor=none;align=center;verticalAlign=middle;whiteSpace=wrap;rounded=0;" vertex="1" parent="W_sDVHE6St3SvDxYg9yA-79">
          <mxGeometry x="8" y="72" width="48" height="30" as="geometry" />
        </mxCell>
        <mxCell id="W_sDVHE6St3SvDxYg9yA-84" style="edgeStyle=elbowEdgeStyle;rounded=0;orthogonalLoop=1;jettySize=auto;html=1;exitX=0.75;exitY=0;exitDx=0;exitDy=0;fontSize=14;fontColor=none;endArrow=none;endFill=0;" edge="1" parent="W_sDVHE6St3SvDxYg9yA-79" source="W_sDVHE6St3SvDxYg9yA-83" target="W_sDVHE6St3SvDxYg9yA-83">
          <mxGeometry relative="1" as="geometry" />
        </mxCell>
        <mxCell id="W_sDVHE6St3SvDxYg9yA-97" value="&lt;font style=&quot;font-size: 9px;&quot;&gt;NI 9742&lt;/font&gt;" style="text;html=1;strokeColor=none;fillColor=none;align=center;verticalAlign=top;whiteSpace=wrap;rounded=0;fontSize=12;fontColor=none;rotation=270;flipV=1;flipH=1;direction=west;horizontal=1;textDirection=ltr;" vertex="1" parent="W_sDVHE6St3SvDxYg9yA-79">
          <mxGeometry x="-8" y="129" width="60" height="30" as="geometry" />
        </mxCell>
        <mxCell id="W_sDVHE6St3SvDxYg9yA-189" value="" style="group" vertex="1" connectable="0" parent="W_sDVHE6St3SvDxYg9yA-79">
          <mxGeometry y="27" width="1" height="51" as="geometry" />
        </mxCell>
        <mxCell id="W_sDVHE6St3SvDxYg9yA-190" value="" style="group" vertex="1" connectable="0" parent="W_sDVHE6St3SvDxYg9yA-189">
          <mxGeometry width="1" height="18" as="geometry" />
        </mxCell>
        <mxCell id="W_sDVHE6St3SvDxYg9yA-191" value="" style="ellipse;whiteSpace=wrap;html=1;fillColor=#000000;aspect=fixed;" vertex="1" parent="W_sDVHE6St3SvDxYg9yA-190">
          <mxGeometry width="1" height="1" as="geometry" />
        </mxCell>
        <mxCell id="W_sDVHE6St3SvDxYg9yA-192" value="" style="ellipse;whiteSpace=wrap;html=1;fillColor=#000000;aspect=fixed;" vertex="1" parent="W_sDVHE6St3SvDxYg9yA-190">
          <mxGeometry y="17" width="1" height="1" as="geometry" />
        </mxCell>
        <mxCell id="W_sDVHE6St3SvDxYg9yA-193" value="" style="ellipse;whiteSpace=wrap;html=1;fillColor=#000000;aspect=fixed;" vertex="1" parent="W_sDVHE6St3SvDxYg9yA-189">
          <mxGeometry y="50" width="1" height="1" as="geometry" />
        </mxCell>
        <mxCell id="W_sDVHE6St3SvDxYg9yA-194" value="" style="ellipse;whiteSpace=wrap;html=1;fillColor=#000000;aspect=fixed;" vertex="1" parent="W_sDVHE6St3SvDxYg9yA-189">
          <mxGeometry y="33" width="1" height="1" as="geometry" />
        </mxCell>
        <mxCell id="W_sDVHE6St3SvDxYg9yA-227" style="edgeStyle=orthogonalEdgeStyle;curved=1;rounded=0;orthogonalLoop=1;jettySize=auto;html=1;exitX=1;exitY=0;exitDx=0;exitDy=0;entryX=0.5;entryY=1;entryDx=0;entryDy=0;fontSize=14;fontColor=none;endArrow=none;endFill=0;" edge="1" parent="W_sDVHE6St3SvDxYg9yA-189">
          <mxGeometry relative="1" as="geometry">
            <mxPoint x="-0.3535533905932198" y="34.85000000000008" as="sourcePoint" />
            <mxPoint y="50.99644660940692" as="targetPoint" />
            <Array as="points">
              <mxPoint x="-6.5" y="34.85000000000002" />
              <mxPoint x="-6.5" y="50.85000000000002" />
            </Array>
          </mxGeometry>
        </mxCell>
        <mxCell id="W_sDVHE6St3SvDxYg9yA-122" value="&lt;div style=&quot;text-align: center;&quot;&gt;&lt;font style=&quot;font-size: 9px;&quot;&gt;COM&lt;/font&gt;&lt;/div&gt;" style="text;html=1;strokeColor=none;fillColor=none;align=left;verticalAlign=middle;whiteSpace=wrap;rounded=0;" vertex="1" parent="W_sDVHE6St3SvDxYg9yA-129">
          <mxGeometry x="55" width="48" height="30" as="geometry" />
        </mxCell>
        <mxCell id="W_sDVHE6St3SvDxYg9yA-63" value="" style="group" vertex="1" connectable="0" parent="W_sDVHE6St3SvDxYg9yA-158">
          <mxGeometry y="5" width="100" height="161" as="geometry" />
        </mxCell>
        <mxCell id="W_sDVHE6St3SvDxYg9yA-25" value="&lt;span style=&quot;font-size: 14px;&quot;&gt;&lt;b&gt;cDAQ&lt;/b&gt;&lt;/span&gt;" style="rounded=0;whiteSpace=wrap;html=1;labelPosition=center;verticalLabelPosition=middle;align=center;verticalAlign=middle;" vertex="1" parent="W_sDVHE6St3SvDxYg9yA-63">
          <mxGeometry x="20" y="1" width="80" height="160" as="geometry" />
        </mxCell>
        <mxCell id="W_sDVHE6St3SvDxYg9yA-61" value="V" style="text;html=1;strokeColor=none;fillColor=none;align=center;verticalAlign=middle;whiteSpace=wrap;rounded=0;" vertex="1" parent="W_sDVHE6St3SvDxYg9yA-63">
          <mxGeometry width="60" height="30" as="geometry" />
        </mxCell>
        <mxCell id="W_sDVHE6St3SvDxYg9yA-62" value="C" style="text;html=1;strokeColor=none;fillColor=none;align=center;verticalAlign=middle;whiteSpace=wrap;rounded=0;" vertex="1" parent="W_sDVHE6St3SvDxYg9yA-63">
          <mxGeometry y="27" width="60" height="30" as="geometry" />
        </mxCell>
        <mxCell id="W_sDVHE6St3SvDxYg9yA-218" value="" style="group" vertex="1" connectable="0" parent="W_sDVHE6St3SvDxYg9yA-219">
          <mxGeometry x="252" y="32" height="117" as="geometry" />
        </mxCell>
        <mxCell id="W_sDVHE6St3SvDxYg9yA-195" value="" style="group" vertex="1" connectable="0" parent="W_sDVHE6St3SvDxYg9yA-218">
          <mxGeometry height="50" as="geometry" />
        </mxCell>
        <mxCell id="W_sDVHE6St3SvDxYg9yA-196" value="" style="group" vertex="1" connectable="0" parent="W_sDVHE6St3SvDxYg9yA-195">
          <mxGeometry width="1" height="18" as="geometry" />
        </mxCell>
        <mxCell id="W_sDVHE6St3SvDxYg9yA-197" value="" style="ellipse;whiteSpace=wrap;html=1;fillColor=#000000;aspect=fixed;" vertex="1" parent="W_sDVHE6St3SvDxYg9yA-196">
          <mxGeometry width="1" height="1" as="geometry" />
        </mxCell>
        <mxCell id="W_sDVHE6St3SvDxYg9yA-198" value="" style="ellipse;whiteSpace=wrap;html=1;fillColor=#000000;aspect=fixed;" vertex="1" parent="W_sDVHE6St3SvDxYg9yA-196">
          <mxGeometry y="17" width="1" height="1" as="geometry" />
        </mxCell>
        <mxCell id="W_sDVHE6St3SvDxYg9yA-199" value="" style="ellipse;whiteSpace=wrap;html=1;fillColor=#000000;aspect=fixed;" vertex="1" parent="W_sDVHE6St3SvDxYg9yA-195">
          <mxGeometry y="50" width="1" height="1" as="geometry" />
        </mxCell>
        <mxCell id="W_sDVHE6St3SvDxYg9yA-200" value="" style="ellipse;whiteSpace=wrap;html=1;fillColor=#000000;aspect=fixed;" vertex="1" parent="W_sDVHE6St3SvDxYg9yA-195">
          <mxGeometry y="33" width="1" height="1" as="geometry" />
        </mxCell>
        <mxCell id="W_sDVHE6St3SvDxYg9yA-212" value="" style="group" vertex="1" connectable="0" parent="W_sDVHE6St3SvDxYg9yA-218">
          <mxGeometry y="67" height="50" as="geometry" />
        </mxCell>
        <mxCell id="W_sDVHE6St3SvDxYg9yA-213" value="" style="group" vertex="1" connectable="0" parent="W_sDVHE6St3SvDxYg9yA-212">
          <mxGeometry width="1" height="18" as="geometry" />
        </mxCell>
        <mxCell id="W_sDVHE6St3SvDxYg9yA-214" value="" style="ellipse;whiteSpace=wrap;html=1;fillColor=#000000;aspect=fixed;" vertex="1" parent="W_sDVHE6St3SvDxYg9yA-213">
          <mxGeometry width="1" height="1" as="geometry" />
        </mxCell>
        <mxCell id="W_sDVHE6St3SvDxYg9yA-215" value="" style="ellipse;whiteSpace=wrap;html=1;fillColor=#000000;aspect=fixed;" vertex="1" parent="W_sDVHE6St3SvDxYg9yA-213">
          <mxGeometry y="17" width="1" height="1" as="geometry" />
        </mxCell>
        <mxCell id="W_sDVHE6St3SvDxYg9yA-216" value="" style="ellipse;whiteSpace=wrap;html=1;fillColor=#000000;aspect=fixed;" vertex="1" parent="W_sDVHE6St3SvDxYg9yA-212">
          <mxGeometry y="50" width="1" height="1" as="geometry" />
        </mxCell>
        <mxCell id="W_sDVHE6St3SvDxYg9yA-217" value="" style="ellipse;whiteSpace=wrap;html=1;fillColor=#000000;aspect=fixed;" vertex="1" parent="W_sDVHE6St3SvDxYg9yA-212">
          <mxGeometry y="33" width="1" height="1" as="geometry" />
        </mxCell>
        <mxCell id="W_sDVHE6St3SvDxYg9yA-229" style="edgeStyle=orthogonalEdgeStyle;rounded=0;orthogonalLoop=1;jettySize=auto;html=1;exitX=0;exitY=0;exitDx=0;exitDy=0;fontSize=14;fontColor=none;endArrow=none;endFill=0;entryX=1;entryY=0;entryDx=0;entryDy=0;" edge="1" parent="1" source="W_sDVHE6St3SvDxYg9yA-172" target="W_sDVHE6St3SvDxYg9yA-34">
          <mxGeometry relative="1" as="geometry">
            <mxPoint x="500" y="300" as="targetPoint" />
            <Array as="points">
              <mxPoint x="634" y="260" />
              <mxPoint x="341" y="260" />
              <mxPoint x="341" y="308" />
            </Array>
          </mxGeometry>
        </mxCell>
      </root>
    </mxGraphModel>
  </diagram>
</mxfile>
